<svg width="246" height="400" viewBox="0 0 246 400" fill="none" xmlns="http://www.w3.org/2000/svg">
  <path fill-rule="evenodd" clip-rule="evenodd" d="M197.307 4.89984C238.495 3.14504 282.03 -8.57504 317.745 12.0504C354.948 33.5355 377.353 74.2997 389.115 115.67C400.585 156.012 393.699 197.935 382.048 238.225C370.033 279.776 354.177 321.047 321.537 349.373C287.04 379.31 242.22 406.69 197.307 398.545C153.489 390.599 132.624 341.9 101.959 309.555C77.9195 284.198 53.5533 261.18 37.593 230.08C18.7202 193.304 -7.16724 154.834 1.84998 114.482C11.0783 73.1861 47.2251 42.6737 84.0907 22.0052C118.23 2.86493 158.22 6.56517 197.307 4.89984Z" fill="url(#paint0_linear)"/>
  <defs>
    <linearGradient id="paint0_linear" x1="197.507" y1="-99.5668" x2="197.507" y2="562.488" gradientUnits="userSpaceOnUse">
      <stop stop-color="#0F193E"/>
      <stop offset="1" stop-color="#0F193E" stop-opacity="0"/>
    </linearGradient>
  </defs>
</svg>
