<svg width="32" height="29" viewBox="0 0 32 29" fill="none" xmlns="http://www.w3.org/2000/svg">
  <path d="M17.8761 13.8558L20.3594 11.6228C20.7769 11.2594 21.3363 11.058 21.9172 11.0622C22.498 11.0664 23.0538 11.2757 23.4648 11.6451C23.8759 12.0145 24.1092 12.5144 24.1147 13.0372C24.1201 13.5599 23.8972 14.0637 23.494 14.44L17.227 20.0803C17.0218 20.266 16.7777 20.4135 16.5089 20.5141C16.2401 20.6147 15.9519 20.6665 15.6608 20.6665C15.3697 20.6665 15.0815 20.6147 14.8127 20.5141C14.5439 20.4135 14.2999 20.266 14.0946 20.0803L7.82762 14.44C7.62195 14.2546 7.45885 14.0346 7.34765 13.7925C7.23645 13.5504 7.17933 13.2909 7.17953 13.029C7.17995 12.4999 7.41387 11.9927 7.82984 11.6188C8.24581 11.245 8.80975 11.0352 9.3976 11.0355C9.98545 11.0359 10.5491 11.2464 10.9644 11.6208L13.4455 13.8558V2.6091C13.4455 2.08033 13.6789 1.57321 14.0944 1.19931C14.5098 0.825411 15.0733 0.615356 15.6608 0.615356C16.2483 0.615356 16.8118 0.825411 17.2272 1.19931C17.6427 1.57321 17.8761 2.08033 17.8761 2.6091V13.8558ZM2.3692 24.5403H28.9524C29.54 24.5403 30.1034 24.7503 30.5189 25.1242C30.9343 25.4981 31.1677 26.0052 31.1677 26.534C31.1677 27.0628 30.9343 27.5699 30.5189 27.9438C30.1034 28.3177 29.54 28.5277 28.9524 28.5277H2.3692C1.78167 28.5277 1.21821 28.3177 0.802768 27.9438C0.387325 27.5699 0.153931 27.0628 0.153931 26.534C0.153931 26.0052 0.387325 25.4981 0.802768 25.1242C1.21821 24.7503 1.78167 24.5403 2.3692 24.5403Z" fill="white"/>
</svg>
