<svg width="207" height="52" viewBox="0 0 207 52" fill="none" xmlns="http://www.w3.org/2000/svg">
  <rect width="74" height="52" rx="15" fill="url(#paint0_linear)"/>
  <path d="M39.3973 25.3859L41.9565 23.0847C42.3868 22.7101 42.9633 22.5026 43.5619 22.5069C44.1605 22.5112 44.7332 22.727 45.1568 23.1076C45.5804 23.4883 45.8209 24.0035 45.8265 24.5422C45.8321 25.081 45.6024 25.6001 45.1869 25.9879L38.7284 31.8005C38.5169 31.992 38.2654 32.1439 37.9884 32.2476C37.7114 32.3513 37.4143 32.4047 37.1143 32.4047C36.8143 32.4047 36.5173 32.3513 36.2403 32.2476C35.9633 32.1439 35.7118 31.992 35.5003 31.8005L29.0418 25.9879C28.8299 25.7969 28.6618 25.5701 28.5472 25.3206C28.4326 25.0712 28.3737 24.8038 28.3739 24.5338C28.3744 23.9886 28.6154 23.4658 29.0441 23.0806C29.4728 22.6953 30.054 22.4791 30.6598 22.4795C31.2656 22.4798 31.8464 22.6968 32.2745 23.0826L34.8314 25.3859V13.7956C34.8314 13.2506 35.0719 12.728 35.5001 12.3427C35.9282 11.9574 36.5089 11.7409 37.1143 11.7409C37.7198 11.7409 38.3005 11.9574 38.7286 12.3427C39.1568 12.728 39.3973 13.2506 39.3973 13.7956V25.3859ZM23.4166 36.3968H50.8121C51.4175 36.3968 51.9982 36.6133 52.4264 36.9986C52.8545 37.3839 53.095 37.9065 53.095 38.4515C53.095 38.9964 52.8545 39.519 52.4264 39.9043C51.9982 40.2897 51.4175 40.5061 50.8121 40.5061H23.4166C22.8111 40.5061 22.2305 40.2897 21.8023 39.9043C21.3742 39.519 21.1337 38.9964 21.1337 38.4515C21.1337 37.9065 21.3742 37.3839 21.8023 36.9986C22.2305 36.6133 22.8111 36.3968 23.4166 36.3968Z" fill="white"/>
  <path d="M81.9453 17.3711H86.0742L89.4102 23.7422C90.2487 25.3828 90.8411 26.5677 91.1875 27.2969H91.2969C91.6979 26.5312 92.2995 25.3464 93.1016 23.7422L96.4102 17.3711H100.566L93.0742 30.2227V39H89.4648V30.2227L81.9453 17.3711ZM100.867 20.4609V17.3711H116.945V20.4609H110.711V39H107.102V20.4609H100.867ZM124.766 34.3789L127.938 33.3125C128.448 34.224 129.186 34.9714 130.152 35.5547C131.118 36.1198 132.185 36.4023 133.352 36.4023C134.555 36.4023 135.521 36.1107 136.25 35.5273C136.979 34.944 137.344 34.1875 137.344 33.2578C137.344 32.2734 136.952 31.5078 136.168 30.9609C135.402 30.4141 134.272 29.8854 132.777 29.375C130.645 28.6641 129.204 28.099 128.457 27.6797C126.507 26.5677 125.531 24.9544 125.531 22.8398C125.531 21.0534 126.233 19.6133 127.637 18.5195C129.04 17.4258 130.872 16.8789 133.133 16.8789C134.992 16.8789 136.578 17.3164 137.891 18.1914C139.221 19.0482 140.188 20.151 140.789 21.5L137.754 22.5117C136.587 20.8164 135.038 19.9688 133.105 19.9688C131.921 19.9688 130.982 20.2331 130.289 20.7617C129.596 21.2904 129.25 21.9831 129.25 22.8398C129.25 23.0951 129.277 23.3411 129.332 23.5781C129.387 23.7969 129.496 24.0065 129.66 24.207C129.824 24.4076 129.97 24.5807 130.098 24.7266C130.225 24.8724 130.435 25.0273 130.727 25.1914C131.018 25.3555 131.246 25.4831 131.41 25.5742C131.592 25.6654 131.884 25.7839 132.285 25.9297C132.686 26.0755 132.969 26.1758 133.133 26.2305C133.315 26.2852 133.643 26.3945 134.117 26.5586C134.591 26.7044 134.91 26.8047 135.074 26.8594C135.913 27.1328 136.651 27.4245 137.289 27.7344C137.927 28.0443 138.547 28.4453 139.148 28.9375C139.768 29.4115 140.242 30.0039 140.57 30.7148C140.898 31.4258 141.062 32.2279 141.062 33.1211C141.062 35.1445 140.333 36.7122 138.875 37.8242C137.435 38.9362 135.566 39.4922 133.27 39.4922C131.283 39.4922 129.542 39.0365 128.047 38.125C126.552 37.1953 125.458 35.9466 124.766 34.3789ZM146.449 31.125C146.449 32.9479 146.823 34.306 147.57 35.1992C148.318 36.0924 149.193 36.5391 150.195 36.5391C151.18 36.5391 152.046 36.0924 152.793 35.1992C153.54 34.306 153.914 32.9479 153.914 31.125C153.914 29.2656 153.54 27.8984 152.793 27.0234C152.046 26.1302 151.18 25.6836 150.195 25.6836C149.211 25.6836 148.336 26.1302 147.57 27.0234C146.823 27.8984 146.449 29.2656 146.449 31.125ZM142.895 31.125C142.895 28.7734 143.514 26.7865 144.754 25.1641C145.993 23.5417 147.807 22.7305 150.195 22.7305C152.565 22.7305 154.37 23.5417 155.609 25.1641C156.849 26.7865 157.469 28.7734 157.469 31.125C157.469 31.8542 157.396 32.5833 157.25 33.3125C157.122 34.0417 156.885 34.7891 156.539 35.5547C156.193 36.3021 155.755 36.9674 155.227 37.5508C154.698 38.1159 153.996 38.5807 153.121 38.9453C152.264 39.3099 151.289 39.4922 150.195 39.4922C149.12 39.4922 148.145 39.319 147.27 38.9727C146.413 38.6081 145.711 38.1523 145.164 37.6055C144.635 37.0404 144.189 36.3841 143.824 35.6367C143.478 34.8711 143.232 34.1237 143.086 33.3945C142.958 32.6471 142.895 31.8906 142.895 31.125ZM160.312 39V23.2227H163.676V25.2188H163.703C163.977 24.6354 164.478 24.0794 165.207 23.5508C165.954 23.0039 166.911 22.7305 168.078 22.7305C169.646 22.7305 170.895 23.2135 171.824 24.1797C172.754 25.1458 173.219 26.7044 173.219 28.8555V39H169.746V29.3203C169.746 26.8958 168.926 25.6836 167.285 25.6836C166.283 25.6836 165.444 26.0846 164.77 26.8867C164.113 27.6888 163.785 28.6823 163.785 29.8672V39H160.312ZM179.48 30.8242C179.48 32.4284 179.79 33.6771 180.41 34.5703C181.048 35.4635 181.887 35.9102 182.926 35.9102C183.947 35.9102 184.767 35.4727 185.387 34.5977C186.007 33.7227 186.316 32.4557 186.316 30.7969C186.316 29.1745 186.007 27.9167 185.387 27.0234C184.767 26.1302 183.956 25.6836 182.953 25.6836C181.896 25.6836 181.048 26.1484 180.41 27.0781C179.79 28.0078 179.48 29.2565 179.48 30.8242ZM175.953 30.8516C175.953 28.3906 176.564 26.4219 177.785 24.9453C179.007 23.4688 180.574 22.7305 182.488 22.7305C183.454 22.7305 184.266 22.9766 184.922 23.4688C185.596 23.9427 186.07 24.4714 186.344 25.0547V23.2227H189.789V36.8125C189.789 39.7839 189.206 41.9805 188.039 43.4023C186.891 44.8424 185.113 45.5625 182.707 45.5625C180.064 45.5625 178.013 44.5417 176.555 42.5L178.852 40.9141C179.909 42.1536 181.212 42.7734 182.762 42.7734C183.764 42.7734 184.594 42.3906 185.25 41.625C185.906 40.8594 186.262 39.8568 186.316 38.6172C186.353 37.888 186.371 37.2865 186.371 36.8125C186.025 37.3958 185.505 37.888 184.812 38.2891C184.12 38.6719 183.382 38.8633 182.598 38.8633C180.611 38.8633 179.007 38.1341 177.785 36.6758C176.564 35.1992 175.953 33.2578 175.953 30.8516ZM192.332 35.7188L194.82 34.2695C195.914 35.8737 197.336 36.6758 199.086 36.6758C199.943 36.6758 200.617 36.5117 201.109 36.1836C201.62 35.8372 201.875 35.3815 201.875 34.8164C201.875 34.3607 201.665 33.9596 201.246 33.6133C200.845 33.2669 200.417 33.0117 199.961 32.8477C199.505 32.6654 198.822 32.4284 197.91 32.1367C197.746 32.082 197.628 32.0456 197.555 32.0273C196.898 31.8086 196.342 31.599 195.887 31.3984C195.449 31.1797 194.984 30.8971 194.492 30.5508C194 30.1862 193.626 29.7396 193.371 29.2109C193.116 28.6641 192.988 28.0352 192.988 27.3242C192.988 25.9388 193.572 24.8268 194.738 23.9883C195.905 23.1497 197.354 22.7305 199.086 22.7305C200.38 22.7305 201.602 23.0768 202.75 23.7695C203.898 24.444 204.755 25.3099 205.32 26.3672L203.023 27.7617C201.948 26.2852 200.645 25.5469 199.113 25.5469C198.275 25.5469 197.628 25.7201 197.172 26.0664C196.734 26.3945 196.516 26.832 196.516 27.3789C196.516 27.8346 196.707 28.2448 197.09 28.6094C197.491 28.9557 197.901 29.2109 198.32 29.375C198.74 29.5391 199.332 29.7487 200.098 30.0039C200.298 30.0586 200.444 30.1042 200.535 30.1406C203.78 31.1797 205.402 32.7474 205.402 34.8438C205.402 36.138 204.855 37.2409 203.762 38.1523C202.686 39.0456 201.155 39.4922 199.168 39.4922C197.637 39.4922 196.27 39.1549 195.066 38.4805C193.882 37.806 192.97 36.8854 192.332 35.7188Z" fill="white"/>
  <defs>
    <linearGradient id="paint0_linear" x1="37" y1="0" x2="36.6795" y2="93.0538" gradientUnits="userSpaceOnUse">
      <stop stop-color="#DF3C3C"/>
      <stop offset="1" stop-color="#DF3C3C" stop-opacity="0"/>
    </linearGradient>
  </defs>
</svg>
